<svg width="783" height="519" viewBox="0 0 783 519" fill="none" xmlns="http://www.w3.org/2000/svg">
<path d="M168.019 302.894C131.427 266.872 115.973 229.292 124.501 197.078C135.445 155.738 184.066 127.154 257.895 118.657L258.168 121.029C185.366 129.407 137.487 157.349 126.808 197.689C118.508 229.039 133.739 265.798 169.694 301.194L168.019 302.894Z" fill="black"/>
<path d="M521.068 430.761C475.399 430.761 425.772 423.974 376.478 410.924C315.519 394.786 259.627 370.428 214.843 340.481L216.169 338.498C260.737 368.299 316.382 392.547 377.088 408.617C431.948 423.141 487.218 429.871 536.905 428.095L536.991 430.479C531.744 430.668 526.436 430.762 521.068 430.761Z" fill="#141313"/>
<path d="M625.837 415.753L625.073 413.492C665.917 399.683 691.464 377.437 698.951 349.158C708.467 313.208 687.792 271.491 640.732 231.69C593.432 191.688 525.224 158.496 448.67 138.23L449.281 135.923C526.169 156.278 594.709 189.642 642.272 229.868C690.076 270.297 711.024 312.878 701.258 349.768C693.556 378.858 667.476 401.675 625.837 415.753Z" fill="#141313"/>
<path d="M250.79 431.758C161.054 391.959 91.905 340.325 56.083 286.366L58.071 285.045C93.6453 338.631 162.431 389.96 251.757 429.577L250.79 431.758Z" fill="black"/>
<path d="M566.296 500.707C557.04 500.707 547.626 500.5 538.054 500.087L538.156 497.703C609.589 500.796 672.616 492.247 720.435 472.977L721.328 475.191C679.614 491.999 626.446 500.707 566.296 500.707Z" fill="black"/>
<path d="M514.229 120.797C499.398 115.968 484.142 111.472 468.886 107.433C381.094 84.1916 294.793 75.9396 219.311 83.574L219.071 81.1992C294.835 73.5397 381.431 81.8115 469.497 105.126C484.796 109.176 500.095 113.686 514.968 118.528L514.229 120.797Z" fill="black"/>
<path d="M111.936 306.474C75.3446 270.452 59.89 232.872 68.4181 200.658C79.3625 159.317 127.983 130.734 201.812 122.237L202.085 124.608C129.283 132.987 81.4047 160.928 70.7254 201.268C62.4256 232.619 77.6559 269.378 113.611 304.774L111.936 306.474Z" fill="black"/>
<path d="M464.984 434.341C419.316 434.341 369.689 427.554 320.395 414.504C259.436 398.366 203.544 374.007 158.76 344.061L160.086 342.077C204.654 371.879 260.299 396.126 321.005 412.197C375.865 426.721 431.135 433.45 480.822 431.674L480.908 434.059C475.661 434.247 470.353 434.341 464.984 434.341Z" fill="black"/>
<path d="M569.754 419.333L568.99 417.072C609.834 403.262 635.381 381.017 642.868 352.737C652.385 316.788 631.709 275.071 584.649 235.27C537.349 195.268 469.141 162.076 392.588 141.81L393.198 139.502C470.086 159.858 538.626 193.222 586.189 233.448C633.993 273.877 654.941 316.458 645.175 353.348C637.474 382.438 611.393 405.255 569.754 419.333Z" fill="#141313"/>
<path d="M194.707 435.338C104.971 395.539 35.822 343.905 0 289.945L1.98799 288.625C37.5624 342.211 106.348 393.539 195.674 433.157L194.707 435.338Z" fill="black"/>
<path d="M510.213 504.287C500.957 504.287 491.543 504.08 481.971 503.667L482.073 501.283C553.507 504.376 616.533 495.827 664.352 476.557L665.245 478.771C623.531 495.579 570.364 504.287 510.213 504.287Z" fill="black"/>
<path d="M458.146 124.377C443.315 119.548 428.059 115.052 412.803 111.013C325.011 87.7713 238.71 79.5194 163.228 87.1537L162.988 84.7789C238.752 77.1194 325.348 85.3912 413.413 108.706C428.712 112.756 444.012 117.265 458.885 122.108L458.146 124.377Z" fill="black"/>
<path d="M524.682 481.47C529.955 481.47 534.229 477.196 534.229 471.924C534.229 466.652 529.955 462.378 524.682 462.378C519.41 462.378 515.136 466.652 515.136 471.924C515.136 477.196 519.41 481.47 524.682 481.47Z" fill="#FD6584"/>
<path d="M558.496 318.88C563.768 318.88 568.042 314.606 568.042 309.334C568.042 304.062 563.768 299.788 558.496 299.788C553.224 299.788 548.95 304.062 548.95 309.334C548.95 314.606 553.224 318.88 558.496 318.88Z" fill="#141313"/>
<path d="M380.867 54.0919C386.139 54.0919 390.413 49.818 390.413 44.5459C390.413 39.2738 386.139 34.9999 380.867 34.9999C375.595 34.9999 371.321 39.2738 371.321 44.5459C371.321 49.818 375.595 54.0919 380.867 54.0919Z" fill="#141313"/>
<path d="M180.826 410.73C180.826 413.16 180.906 415.59 181.076 418C181.256 420.88 181.566 423.74 181.986 426.58C183.397 436.142 186.095 445.47 190.006 454.31C190.205 454.75 190.405 455.19 190.606 455.63L190.906 456.29C191.006 456.51 191.116 456.73 191.216 456.94C191.356 457.23 191.486 457.51 191.626 457.79C191.796 458.14 191.966 458.49 192.146 458.84C192.166 458.88 192.186 458.93 192.216 458.98C192.366 459.28 192.506 459.57 192.666 459.87C192.695 459.935 192.728 459.999 192.766 460.06C192.936 460.4 193.116 460.75 193.296 461.09C193.496 461.45 193.686 461.82 193.886 462.18C194.366 463.07 194.866 463.95 195.376 464.83C195.526 465.09 195.676 465.35 195.836 465.61C195.976 465.85 196.116 466.09 196.266 466.33C196.366 466.49 196.466 466.66 196.566 466.82C196.726 467.09 196.886 467.35 197.056 467.62C197.426 468.21 197.806 468.8 198.176 469.39H198.186C198.356 469.66 198.536 469.93 198.716 470.19V470.2C199.246 471 199.796 471.8 200.346 472.59L200.349 472.591L200.353 472.593L200.355 472.596L200.356 472.6C200.796 473.24 201.256 473.86 201.706 474.48V474.49C202.006 474.88 202.296 475.28 202.596 475.67C202.836 475.99 203.086 476.32 203.336 476.64C203.386 476.71 203.446 476.77 203.496 476.84V476.85C203.566 476.94 203.636 477.02 203.706 477.11C204.766 478.47 205.859 479.8 206.986 481.1L207.166 481.31C207.226 481.38 207.296 481.45 207.356 481.53C207.456 481.64 207.546 481.75 207.646 481.86C207.736 481.97 207.836 482.08 207.936 482.19C213.809 488.806 220.468 494.679 227.766 499.68C228.736 500.35 229.726 501 230.716 501.63C230.966 501.79 231.216 501.95 231.466 502.1C231.536 502.15 231.616 502.2 231.686 502.25C231.826 502.33 231.956 502.41 232.096 502.5C232.226 502.58 232.356 502.66 232.496 502.74C233.026 503.07 233.566 503.39 234.106 503.71C234.236 503.79 234.376 503.87 234.516 503.95C234.646 504.02 234.786 504.1 234.926 504.18C234.926 504.19 234.926 504.19 234.936 504.19H234.946V504.2H234.956C235.626 504.59 236.306 504.97 236.996 505.34C237.366 505.54 237.746 505.75 238.126 505.94C238.986 506.41 239.856 506.86 240.726 507.29C241.036 507.44 241.356 507.59 241.666 507.75C241.926 507.87 242.186 508 242.446 508.12C242.526 508.16 242.596 508.19 242.666 508.23C242.886 508.33 243.096 508.43 243.316 508.53C243.556 508.64 243.796 508.75 244.026 508.86C244.296 508.98 244.556 509.1 244.826 509.21C245.826 509.66 246.836 510.09 247.846 510.5C251.465 511.984 255.164 513.266 258.926 514.34C259.096 514.39 259.276 514.44 259.456 514.49C261.066 514.94 262.686 515.35 264.316 515.72C267.166 516.38 270.042 516.92 272.946 517.34H272.966C273.316 517.39 273.656 517.44 274.006 517.49C274.036 517.49 274.066 517.5 274.106 517.5C274.106 517.51 274.106 517.51 274.116 517.5C274.496 517.55 274.886 517.6 275.266 517.65C275.292 517.658 275.319 517.661 275.346 517.66C275.706 517.71 276.076 517.75 276.436 517.79C276.826 517.83 277.216 517.87 277.606 517.91C277.906 517.94 278.206 517.97 278.506 518C278.531 518.009 278.559 518.012 278.586 518.01C278.856 518.03 279.126 518.06 279.396 518.08H279.436C279.666 518.1 279.906 518.12 280.136 518.14C282.926 518.36 285.726 518.46 288.566 518.46C291.636 518.46 294.686 518.34 297.696 518.08H297.726C298.376 518.02 299.016 517.96 299.656 517.9C299.826 517.88 299.986 517.87 300.156 517.85C300.186 517.85 300.226 517.84 300.256 517.84C300.306 517.83 300.356 517.83 300.416 517.82C300.443 517.821 300.47 517.818 300.496 517.81C300.716 517.79 300.936 517.76 301.166 517.74L301.916 517.65C302.166 517.62 302.416 517.58 302.666 517.55C302.726 517.54 302.776 517.54 302.836 517.53C303.016 517.51 303.196 517.48 303.376 517.45C303.466 517.44 303.556 517.43 303.636 517.42C303.816 517.39 303.986 517.37 304.166 517.34H304.176C309.663 516.55 315.08 515.33 320.376 513.69C320.656 513.6 320.936 513.52 321.216 513.43C321.226 513.43 321.236 513.42 321.246 513.42C321.326 513.39 321.416 513.37 321.496 513.34C322.246 513.1 322.986 512.85 323.726 512.59C324.746 512.25 325.756 511.88 326.766 511.5C327.036 511.39 327.306 511.29 327.576 511.18C328.126 510.97 328.666 510.75 329.206 510.53C330.126 510.16 331.046 509.77 331.956 509.37C332.806 508.99 333.646 508.61 334.486 508.21C334.506 508.2 334.536 508.2 334.556 508.18C334.746 508.09 334.936 508 335.116 507.91H335.126C339.731 505.7 344.172 503.163 348.416 500.32C349.776 499.41 351.116 498.47 352.436 497.5C353.496 496.71 354.536 495.91 355.576 495.09C360.706 491.009 365.456 486.47 369.766 481.53V481.52C370.076 481.18 370.366 480.83 370.666 480.48C370.716 480.43 370.756 480.38 370.796 480.34C370.986 480.11 371.166 479.89 371.356 479.67V479.66C371.606 479.37 371.856 479.07 372.096 478.77C372.156 478.7 372.206 478.64 372.256 478.58V478.57C372.456 478.33 372.646 478.09 372.846 477.84C372.946 477.72 373.036 477.6 373.136 477.48V477.47C373.726 476.73 374.296 475.99 374.866 475.23C375.016 475.03 375.166 474.82 375.326 474.61C376.046 473.64 376.746 472.65 377.426 471.66V471.65C377.686 471.28 377.936 470.9 378.196 470.53C378.446 470.15 378.696 469.77 378.946 469.39C379.196 468.99 379.456 468.6 379.706 468.2L379.736 468.14C379.986 467.76 380.236 467.36 380.476 466.97C380.666 466.65 380.856 466.34 381.046 466.03C381.166 465.82 381.296 465.61 381.416 465.39C381.463 465.322 381.506 465.252 381.546 465.18C381.826 464.69 382.106 464.2 382.386 463.71C382.716 463.14 383.036 462.56 383.356 461.98C383.476 461.74 383.606 461.5 383.736 461.26C383.786 461.18 383.826 461.1 383.866 461.02C384.016 460.74 384.166 460.45 384.306 460.16C384.456 459.88 384.606 459.59 384.756 459.3C384.896 459.02 385.046 458.73 385.186 458.44C385.296 458.22 385.396 458 385.506 457.78C385.513 457.762 385.523 457.745 385.536 457.73C385.586 457.62 385.636 457.52 385.676 457.42C385.688 457.405 385.698 457.388 385.706 457.37C385.816 457.15 385.916 456.92 386.026 456.7C386.166 456.41 386.296 456.11 386.436 455.82C386.526 455.62 386.626 455.41 386.716 455.2C386.846 454.91 386.986 454.62 387.106 454.32C387.246 454.02 387.376 453.72 387.506 453.41C387.543 453.335 387.576 453.258 387.606 453.18C387.676 453.04 387.726 452.9 387.786 452.76C387.946 452.39 388.106 452.01 388.256 451.64C388.436 451.22 388.606 450.79 388.766 450.37C388.926 449.98 389.076 449.58 389.226 449.18L389.286 449.04C391.616 442.903 393.383 436.567 394.566 430.11V430.1C395.233 426.414 395.71 422.695 395.996 418.96C396.006 418.75 396.026 418.55 396.036 418.35C396.216 415.82 396.296 413.28 396.296 410.73C396.296 409.6 396.276 408.48 396.246 407.36C395.548 383.936 387.195 361.386 372.466 343.16C372.146 342.76 371.826 342.36 371.496 341.96C371.166 341.56 370.826 341.17 370.496 340.78C359.533 327.942 345.708 317.86 330.134 311.345C314.56 304.831 297.673 302.067 280.835 303.277C263.997 304.486 247.679 309.635 233.196 318.309C218.713 326.982 206.47 338.937 197.456 353.21C196.966 353.99 196.476 354.78 196.006 355.57C195.526 356.37 195.066 357.17 194.606 357.98C185.546 374.083 180.8 392.253 180.826 410.73Z" fill="#F2F2F2"/>
<path d="M284.283 340.263C301.999 344.809 320.154 347.43 338.432 348.079C341.196 348.229 343.966 348.211 346.728 348.022C352.797 347.512 357.995 345.604 363.785 344.562C366.568 344.062 369.669 343.697 372.471 343.157C371.823 342.354 371.164 341.56 370.493 340.777C364.451 341.287 358.315 342.958 352.2 343.735C341.806 345.056 330.16 343.581 322.28 339.944C318.457 338.179 315.528 335.976 311.719 334.203C311.201 333.937 310.639 333.765 310.061 333.695C308.963 333.662 307.878 333.943 306.934 334.506C300.543 337.733 291.263 340.355 282.65 338.912C282.008 339.415 283.228 339.987 284.283 340.263Z" fill="white"/>
<path d="M246.169 351.618C246.09 351.604 246.011 351.593 245.932 351.579C246.263 351.374 246.575 351.139 246.863 350.878L246.169 351.618Z" fill="white"/>
<path d="M194.608 357.984C198.205 358.272 201.821 358.486 205.456 358.626C208.22 358.775 210.991 358.757 213.752 358.57C219.821 358.057 225.02 356.152 230.809 355.11C236.115 354.156 242.563 353.696 245.932 351.579C237.225 350.072 228.203 353.14 219.225 354.282C211.962 355.175 204.6 354.812 197.461 353.207C196.467 354.771 195.516 356.363 194.608 357.984Z" fill="white"/>
<path d="M238.125 505.94C238.985 506.41 239.855 506.86 240.725 507.29C241.035 507.44 241.355 507.59 241.665 507.75C241.925 507.87 242.185 508 242.445 508.12C242.525 508.16 242.595 508.19 242.665 508.23C242.885 508.33 243.095 508.43 243.315 508.53C243.555 508.64 243.796 508.75 244.026 508.86C244.296 508.98 244.556 509.1 244.826 509.21C245.826 509.66 246.835 510.09 247.845 510.5C251.465 511.984 255.164 513.266 258.926 514.34C259.096 514.39 259.276 514.44 259.456 514.49C261.066 514.94 262.686 515.35 264.316 515.72C267.166 516.38 270.042 516.92 272.946 517.34H272.966C273.316 517.39 273.656 517.44 274.006 517.49C274.036 517.49 274.066 517.5 274.106 517.5C274.106 517.51 274.106 517.51 274.116 517.5C274.496 517.55 274.886 517.6 275.266 517.65C275.291 517.658 275.319 517.661 275.346 517.66C275.706 517.71 276.076 517.75 276.436 517.79C276.826 517.83 277.216 517.87 277.606 517.91C277.906 517.94 278.206 517.97 278.506 518C278.531 518.009 278.558 518.012 278.586 518.01C278.856 518.03 279.126 518.06 279.396 518.08H279.436C279.666 518.1 279.906 518.12 280.136 518.14C282.926 518.36 285.726 518.46 288.566 518.46C291.636 518.46 294.686 518.34 297.696 518.08H297.726C298.376 518.02 299.016 517.96 299.656 517.9C299.826 517.88 299.986 517.87 300.156 517.85C300.186 517.85 300.226 517.84 300.256 517.84C300.306 517.83 300.356 517.83 300.416 517.82C300.443 517.821 300.47 517.818 300.496 517.81C300.716 517.79 300.936 517.76 301.166 517.74L301.916 517.65C302.166 517.62 302.416 517.58 302.666 517.55C302.726 517.54 302.776 517.54 302.836 517.53C303.016 517.51 303.196 517.48 303.376 517.45C303.466 517.44 303.556 517.43 303.636 517.42C303.816 517.39 303.986 517.37 304.166 517.34H304.176C309.663 516.55 315.08 515.33 320.376 513.69C320.656 513.6 320.936 513.52 321.216 513.43C319.924 507.408 317.266 501.764 313.446 496.933C309.626 492.103 304.747 488.215 299.186 485.57C300.561 484.26 301.512 482.567 301.916 480.71C302.175 479.513 302.196 478.277 301.976 477.072C301.756 475.868 301.301 474.718 300.636 473.69C299.338 471.697 297.302 470.302 294.976 469.81L280.156 466.71C277.77 466.245 275.297 466.74 273.275 468.089C271.252 469.437 269.844 471.529 269.356 473.91C269.204 474.64 269.137 475.385 269.156 476.13C254.886 485.63 244.615 495.48 238.125 505.94Z" fill="#DB4545"/>
<path d="M281.884 460.856C298.936 460.856 312.76 447.033 312.76 429.981C312.76 412.929 298.936 399.105 281.884 399.105C264.832 399.105 251.009 412.929 251.009 429.981C251.009 447.033 264.832 460.856 281.884 460.856Z" fill="#FFB8B8"/>
<path d="M262.639 456.6C259.347 454.351 255.984 450.029 253.74 446.79C250.765 442.533 248.719 437.697 247.733 432.598C246.746 427.499 246.843 422.249 248.015 417.189C248.389 415.166 249.308 413.283 250.673 411.744C252.127 410.305 254.502 409.623 256.277 410.64C255.793 409.343 255.579 407.961 255.65 406.578C255.721 405.195 256.074 403.842 256.689 402.601C257.936 400.123 259.744 397.97 261.968 396.313C266.222 393.037 271.283 390.974 276.615 390.343C281.947 389.712 287.35 390.536 292.251 392.728C294.18 393.621 291.012 386.719 293.031 387.385C295.036 388.161 297.266 388.122 299.243 387.276C301.141 386.32 307.435 391.998 306.706 390.001C308.147 390.655 309.399 391.664 310.345 392.932C311.291 394.2 311.901 395.687 312.118 397.255C312.335 398.822 312.152 400.419 311.585 401.897C311.018 403.374 310.087 404.684 308.878 405.705C307.284 407.05 305.295 407.824 303.55 408.966C300.493 411.117 298.33 414.312 297.467 417.949C296.605 421.586 297.105 425.413 298.871 428.707C297.036 427.527 295.021 426.652 292.907 426.115C291.846 425.856 290.738 425.854 289.676 426.109C288.615 426.365 287.629 426.87 286.802 427.583C286.111 428.374 285.589 429.298 285.267 430.298C284.946 431.298 284.833 432.353 284.935 433.399C285.004 435.494 285.502 437.558 285.558 439.654C285.723 445.803 289.016 457.494 284.248 460.763C280.486 463.342 267.135 459.671 262.639 456.6Z" fill="#2F2E41"/>
<path d="M303.114 275.44C302.464 275.439 301.82 275.309 301.22 275.057C300.325 274.698 299.559 274.076 299.023 273.274C298.487 272.472 298.206 271.527 298.216 270.562V265.675C298.215 264.65 297.808 263.667 297.083 262.942C296.358 262.217 295.375 261.81 294.35 261.808C293.06 261.807 291.823 261.294 290.91 260.381C289.998 259.469 289.485 258.232 289.483 256.942V189.987C289.485 188.696 289.998 187.46 290.91 186.547C291.822 185.635 293.059 185.122 294.35 185.12H516.176C517.467 185.121 518.704 185.635 519.616 186.547C520.528 187.459 521.042 188.696 521.043 189.987V256.942C521.042 258.232 520.528 259.469 519.616 260.381C518.704 261.294 517.467 261.807 516.176 261.808H320.321C319.813 261.807 319.31 261.906 318.84 262.101C318.371 262.295 317.945 262.581 317.586 262.941L306.524 274.003C306.079 274.456 305.549 274.817 304.963 275.064C304.378 275.31 303.749 275.438 303.114 275.44Z" fill="white"/>
<path d="M303.114 276.44C302.332 276.439 301.558 276.283 300.837 275.981C299.758 275.548 298.835 274.798 298.189 273.831C297.543 272.864 297.204 271.725 297.216 270.562V265.676C297.216 264.916 296.913 264.187 296.376 263.649C295.839 263.112 295.11 262.809 294.35 262.808C292.795 262.807 291.303 262.188 290.204 261.088C289.104 259.988 288.485 258.497 288.483 256.941V189.987C288.485 188.431 289.104 186.94 290.203 185.84C291.303 184.74 292.794 184.122 294.35 184.12H516.176C517.732 184.122 519.223 184.74 520.323 185.84C521.423 186.94 522.041 188.431 522.043 189.987V256.941C522.041 258.497 521.423 259.988 520.323 261.088C519.223 262.188 517.732 262.807 516.176 262.808H320.321C319.944 262.807 319.571 262.881 319.223 263.025C318.875 263.169 318.559 263.381 318.293 263.648L307.231 274.71C306.694 275.256 306.053 275.691 305.346 275.988C304.639 276.285 303.881 276.439 303.114 276.44ZM294.35 186.12C293.325 186.121 292.342 186.529 291.617 187.254C290.892 187.979 290.484 188.962 290.483 189.987V256.941C290.484 257.967 290.892 258.95 291.617 259.675C292.342 260.4 293.325 260.807 294.35 260.809C295.64 260.81 296.877 261.323 297.79 262.236C298.702 263.148 299.215 264.385 299.216 265.676V270.562C299.217 271.327 299.443 272.074 299.868 272.71C300.293 273.346 300.897 273.841 301.604 274.134C302.31 274.426 303.087 274.503 303.837 274.354C304.587 274.205 305.276 273.836 305.817 273.296L316.879 262.234C317.33 261.781 317.866 261.421 318.457 261.177C319.048 260.932 319.681 260.807 320.321 260.809H516.176C517.202 260.807 518.185 260.4 518.909 259.675C519.634 258.95 520.042 257.967 520.043 256.941V189.987C520.042 188.962 519.634 187.979 518.909 187.254C518.184 186.529 517.201 186.121 516.176 186.12L294.35 186.12Z" fill="#3F3D56"/>
<path d="M497.114 215.432H317.236C316.549 215.432 315.89 215.16 315.404 214.674C314.918 214.188 314.645 213.529 314.645 212.842C314.645 212.155 314.918 211.496 315.404 211.01C315.89 210.524 316.549 210.251 317.236 210.251H497.114C497.801 210.251 498.46 210.524 498.946 211.01C499.432 211.496 499.705 212.155 499.705 212.842C499.705 213.529 499.432 214.188 498.946 214.674C498.46 215.16 497.801 215.432 497.114 215.432Z" fill="#DB4545"/>
<path d="M496.784 226.439H317.236C316.549 226.439 315.89 226.166 315.404 225.681C314.918 225.195 314.645 224.536 314.645 223.849C314.645 223.161 314.918 222.502 315.404 222.017C315.89 221.531 316.549 221.258 317.236 221.258H496.784C497.471 221.258 498.13 221.531 498.616 222.017C499.102 222.502 499.374 223.161 499.374 223.849C499.374 224.536 499.102 225.195 498.616 225.681C498.13 226.166 497.471 226.439 496.784 226.439Z" fill="#E6E6E6"/>
<path d="M496.605 237.446H317.236C316.549 237.446 315.89 237.173 315.404 236.687C314.918 236.201 314.645 235.542 314.645 234.855C314.645 234.168 314.918 233.509 315.404 233.023C315.89 232.537 316.549 232.264 317.236 232.264H496.605C497.292 232.264 497.951 232.537 498.437 233.023C498.923 233.509 499.196 234.168 499.196 234.855C499.196 235.542 498.923 236.201 498.437 236.687C497.951 237.173 497.292 237.446 496.605 237.446Z" fill="#E6E6E6"/>
<path d="M780.386 174.73C780.386 177.16 780.306 179.59 780.136 182C779.956 184.88 779.646 187.74 779.226 190.58C777.814 200.142 775.116 209.47 771.206 218.31C771.006 218.75 770.806 219.19 770.606 219.63L770.306 220.29C770.206 220.51 770.096 220.73 769.996 220.94C769.856 221.23 769.726 221.51 769.586 221.79C769.416 222.14 769.246 222.49 769.066 222.84C769.046 222.88 769.026 222.93 768.996 222.98C768.846 223.28 768.706 223.57 768.546 223.87C768.516 223.935 768.483 223.999 768.446 224.06C768.276 224.4 768.096 224.75 767.916 225.09C767.716 225.45 767.526 225.82 767.326 226.18C766.846 227.07 766.346 227.95 765.836 228.83C765.686 229.09 765.536 229.35 765.376 229.61C765.236 229.85 765.096 230.09 764.946 230.33C764.846 230.49 764.746 230.66 764.646 230.82C764.486 231.09 764.326 231.35 764.156 231.62C763.786 232.21 763.406 232.8 763.036 233.39H763.026C762.856 233.66 762.676 233.93 762.496 234.19V234.2C761.966 235 761.416 235.8 760.866 236.59L760.862 236.591L760.858 236.593L760.856 236.596L760.856 236.6C760.416 237.24 759.956 237.86 759.506 238.48V238.49C759.206 238.88 758.916 239.28 758.616 239.67C758.376 239.99 758.126 240.32 757.876 240.64C757.826 240.71 757.766 240.77 757.716 240.84V240.85C757.646 240.94 757.576 241.02 757.506 241.11C756.446 242.47 755.352 243.8 754.226 245.1L754.046 245.31C753.986 245.38 753.916 245.45 753.856 245.53C753.756 245.64 753.666 245.75 753.566 245.86C753.476 245.97 753.376 246.08 753.276 246.19C747.402 252.806 740.743 258.679 733.446 263.68C732.476 264.35 731.486 265 730.496 265.63C730.246 265.79 729.996 265.95 729.746 266.1C729.676 266.15 729.596 266.2 729.526 266.25C729.386 266.33 729.256 266.41 729.116 266.5C728.986 266.58 728.856 266.66 728.716 266.74C728.186 267.07 727.646 267.39 727.106 267.71C726.976 267.79 726.836 267.87 726.696 267.95C726.566 268.02 726.426 268.1 726.286 268.18C726.286 268.19 726.286 268.19 726.276 268.19H726.266V268.2H726.256C725.586 268.59 724.906 268.97 724.216 269.34C723.846 269.54 723.466 269.75 723.086 269.94C722.226 270.41 721.356 270.86 720.486 271.29C720.176 271.44 719.856 271.59 719.546 271.75C719.286 271.87 719.026 272 718.766 272.12C718.686 272.16 718.616 272.19 718.546 272.23C718.326 272.33 718.116 272.43 717.896 272.53C717.656 272.64 717.416 272.75 717.186 272.86C716.916 272.98 716.656 273.1 716.386 273.21C715.386 273.66 714.376 274.09 713.366 274.5C709.746 275.984 706.047 277.266 702.286 278.34C702.116 278.39 701.936 278.44 701.756 278.49C700.146 278.94 698.525 279.35 696.896 279.72C694.046 280.38 691.169 280.92 688.266 281.34H688.246C687.896 281.39 687.556 281.44 687.206 281.49C687.176 281.49 687.146 281.5 687.106 281.5C687.106 281.51 687.106 281.51 687.096 281.5C686.716 281.55 686.326 281.6 685.946 281.65C685.92 281.658 685.893 281.661 685.866 281.66C685.506 281.71 685.136 281.75 684.776 281.79C684.386 281.83 683.996 281.87 683.606 281.91C683.306 281.94 683.006 281.97 682.706 282C682.68 282.009 682.653 282.012 682.626 282.01C682.356 282.03 682.086 282.06 681.816 282.08H681.776C681.546 282.1 681.306 282.12 681.076 282.14C678.286 282.36 675.486 282.46 672.646 282.46C669.576 282.46 666.526 282.34 663.516 282.08H663.486C662.836 282.02 662.196 281.96 661.556 281.9C661.386 281.88 661.226 281.87 661.056 281.85C661.026 281.85 660.986 281.84 660.956 281.84C660.906 281.83 660.856 281.83 660.796 281.82C660.768 281.821 660.741 281.818 660.716 281.81C660.496 281.79 660.276 281.76 660.046 281.74L659.296 281.65C659.046 281.62 658.796 281.58 658.546 281.55C658.486 281.54 658.436 281.54 658.376 281.53C658.196 281.51 658.016 281.48 657.836 281.45C657.746 281.44 657.656 281.43 657.576 281.42C657.396 281.39 657.226 281.37 657.046 281.34H657.036C651.548 280.55 646.131 279.33 640.836 277.69C640.556 277.6 640.276 277.52 639.996 277.43C639.986 277.43 639.976 277.42 639.966 277.42C639.886 277.39 639.796 277.37 639.716 277.34C638.966 277.1 638.226 276.85 637.486 276.59C636.466 276.25 635.456 275.88 634.446 275.5C634.176 275.39 633.906 275.29 633.636 275.18C633.086 274.97 632.546 274.75 632.006 274.53C631.086 274.16 630.166 273.77 629.256 273.37C628.406 272.99 627.566 272.61 626.726 272.21C626.706 272.2 626.676 272.2 626.656 272.18C626.466 272.09 626.276 272 626.096 271.91H626.086C621.48 269.7 617.039 267.163 612.796 264.32C611.436 263.41 610.096 262.47 608.776 261.5C607.716 260.71 606.676 259.91 605.636 259.09C600.505 255.009 595.755 250.47 591.446 245.53V245.52C591.136 245.18 590.846 244.83 590.546 244.48C590.496 244.43 590.456 244.38 590.416 244.34C590.226 244.11 590.046 243.89 589.856 243.67V243.66C589.606 243.37 589.356 243.07 589.116 242.77C589.056 242.7 589.006 242.64 588.956 242.58V242.57C588.756 242.33 588.566 242.09 588.366 241.84C588.266 241.72 588.176 241.6 588.076 241.48V241.47C587.486 240.73 586.916 239.99 586.346 239.23C586.196 239.03 586.046 238.82 585.886 238.61C585.166 237.64 584.466 236.65 583.786 235.66V235.65C583.526 235.28 583.276 234.9 583.016 234.53C582.766 234.15 582.516 233.77 582.266 233.39C582.016 232.99 581.756 232.6 581.506 232.2L581.476 232.14C581.226 231.76 580.976 231.36 580.736 230.97C580.546 230.65 580.356 230.34 580.166 230.03C580.046 229.82 579.916 229.61 579.796 229.39C579.749 229.322 579.705 229.252 579.666 229.18C579.386 228.69 579.106 228.2 578.826 227.71C578.496 227.14 578.176 226.56 577.856 225.98C577.736 225.74 577.606 225.5 577.476 225.26C577.426 225.18 577.386 225.1 577.346 225.02C577.196 224.74 577.046 224.45 576.906 224.16C576.756 223.88 576.606 223.59 576.456 223.3C576.316 223.02 576.166 222.73 576.026 222.44C575.916 222.22 575.816 222 575.706 221.78C575.698 221.762 575.688 221.745 575.676 221.73C575.626 221.62 575.576 221.52 575.536 221.42C575.523 221.405 575.513 221.388 575.506 221.37C575.396 221.15 575.296 220.92 575.186 220.7C575.046 220.41 574.916 220.11 574.776 219.82C574.686 219.62 574.586 219.41 574.496 219.2C574.366 218.91 574.226 218.62 574.106 218.32C573.966 218.02 573.836 217.72 573.706 217.41C573.668 217.335 573.635 217.258 573.606 217.18C573.536 217.04 573.486 216.9 573.426 216.76C573.266 216.39 573.106 216.01 572.956 215.64C572.776 215.22 572.606 214.79 572.446 214.37C572.286 213.98 572.136 213.58 571.986 213.18L571.926 213.04C569.596 206.903 567.828 200.567 566.646 194.11V194.1C565.978 190.414 565.501 186.695 565.216 182.96C565.206 182.75 565.186 182.55 565.176 182.35C564.996 179.82 564.916 177.28 564.916 174.73C564.916 173.6 564.936 172.48 564.966 171.36C565.664 147.936 574.016 125.386 588.746 107.16C589.066 106.76 589.386 106.36 589.716 105.96C590.046 105.56 590.386 105.17 590.716 104.78C601.678 91.9421 615.503 81.8597 631.077 75.3454C646.651 68.8312 663.538 66.0674 680.376 67.2769C697.214 68.4865 713.532 73.6354 728.015 82.3088C742.498 90.9821 754.741 102.937 763.756 117.21C764.246 117.99 764.736 118.78 765.206 119.57C765.686 120.37 766.146 121.17 766.606 121.98C775.665 138.083 780.412 156.253 780.386 174.73Z" fill="#F2F2F2"/>
<path d="M676.928 104.263C659.212 108.809 641.057 111.429 622.779 112.079C620.015 112.229 617.245 112.21 614.483 112.022C608.414 111.512 603.216 109.604 597.426 108.562C594.643 108.062 591.542 107.697 588.74 107.157C589.388 106.354 590.047 105.56 590.718 104.777C596.76 105.287 602.896 106.958 609.011 107.735C619.405 109.056 631.051 107.581 638.931 103.944C642.754 102.179 645.683 99.9756 649.492 98.2025C650.01 97.9365 650.571 97.7646 651.15 97.6947C652.248 97.6618 653.333 97.9433 654.277 98.5061C660.668 101.733 669.948 104.355 678.561 102.912C679.203 103.414 677.983 103.987 676.928 104.263Z" fill="white"/>
<path d="M715.042 115.618C715.121 115.604 715.2 115.593 715.279 115.579C714.948 115.374 714.636 115.139 714.348 114.878L715.042 115.618Z" fill="white"/>
<path d="M766.603 121.984C763.006 122.272 759.39 122.486 755.755 122.626C752.991 122.776 750.221 122.757 747.459 122.57C741.39 122.057 736.191 120.152 730.402 119.11C725.096 118.156 718.648 117.696 715.279 115.579C723.986 114.072 733.008 117.14 741.986 118.282C749.249 119.175 756.611 118.812 763.75 117.208C764.744 118.771 765.695 120.363 766.603 121.984Z" fill="white"/>
<path d="M660.5 221.871C678.371 221.871 692.859 207.061 692.859 188.792C692.859 170.522 678.371 155.712 660.5 155.712C642.629 155.712 628.142 170.522 628.142 188.792C628.142 207.061 642.629 221.871 660.5 221.871Z" fill="#FFB6B6"/>
<path d="M723.085 269.94C722.225 270.41 721.355 270.86 720.485 271.29C720.175 271.44 719.855 271.59 719.545 271.75C719.285 271.87 719.025 272 718.765 272.12C718.685 272.16 718.615 272.19 718.545 272.23C718.325 272.33 718.115 272.43 717.895 272.53C717.655 272.64 717.415 272.75 717.185 272.86C716.915 272.98 716.655 273.1 716.385 273.21C715.385 273.66 714.375 274.09 713.365 274.5C709.746 275.984 706.047 277.266 702.285 278.34C702.115 278.39 701.935 278.44 701.755 278.49C700.145 278.94 698.525 279.35 696.895 279.72C694.045 280.38 691.169 280.92 688.265 281.34H688.245C687.895 281.39 687.555 281.44 687.205 281.49C687.175 281.49 687.145 281.5 687.105 281.5C687.105 281.51 687.105 281.51 687.095 281.5C686.715 281.55 686.325 281.6 685.945 281.65C685.919 281.658 685.892 281.661 685.865 281.66C685.505 281.71 685.135 281.75 684.775 281.79C684.385 281.83 683.995 281.87 683.605 281.91C683.305 281.94 683.005 281.97 682.705 282C682.68 282.009 682.652 282.012 682.625 282.01C682.355 282.03 682.085 282.06 681.815 282.08H681.775C681.545 282.1 681.305 282.12 681.075 282.14C678.285 282.36 675.485 282.46 672.645 282.46C669.575 282.46 666.525 282.34 663.515 282.08H663.485C662.835 282.02 662.195 281.96 661.555 281.9C661.385 281.88 661.225 281.87 661.055 281.85C661.025 281.85 660.985 281.84 660.955 281.84C660.905 281.83 660.855 281.83 660.795 281.82C660.768 281.821 660.741 281.818 660.715 281.81C660.495 281.79 660.275 281.76 660.045 281.74L659.295 281.65C659.045 281.62 658.795 281.58 658.545 281.55C658.485 281.54 658.435 281.54 658.375 281.53C658.195 281.51 658.015 281.48 657.835 281.45C657.745 281.44 657.655 281.43 657.575 281.42C657.395 281.39 657.225 281.37 657.045 281.34H657.035C651.548 280.55 646.131 279.33 640.835 277.69C640.555 277.6 640.275 277.52 639.995 277.43C641.287 271.408 643.945 265.764 647.765 260.933C651.584 256.103 656.464 252.215 662.025 249.57C660.65 248.259 659.699 246.566 659.295 244.71C659.036 243.513 659.015 242.277 659.235 241.072C659.454 239.867 659.91 238.718 660.575 237.69C661.873 235.697 663.909 234.302 666.235 233.81L681.055 230.71C683.441 230.245 685.914 230.74 687.936 232.088C689.959 233.437 691.367 235.529 691.855 237.91C692.007 238.64 692.074 239.385 692.055 240.13C706.325 249.63 716.595 259.48 723.085 269.94Z" fill="#DB4545"/>
<path d="M747.088 174.445C741.588 168.031 738.973 159.521 734.576 152.237C730.179 144.954 722.527 138.435 714.443 140.13C708.871 141.298 704.565 146.215 702.384 151.697C700.205 157.179 699.796 163.225 699.414 169.147C699.549 156.976 691.53 145.177 680.484 141.294C669.439 137.41 656.22 141.742 649.279 151.52C646.25 148.713 642.297 147.114 638.168 147.027C634.039 146.941 630.022 148.372 626.878 151.05C620.669 156.599 619.295 167.16 623.861 174.237C628.427 181.315 638.315 183.951 645.571 180.026L648.136 182.386C646.692 187.436 649.492 193.401 654.199 195.302C658.016 196.844 663.405 196.587 664.833 200.593C665.831 203.392 663.965 206.379 661.981 208.53C659.997 210.68 657.641 212.901 657.402 215.877C657.042 220.368 661.683 223.513 665.901 224.461C676.072 226.745 687.358 222.035 693.221 213.059C693.334 212.886 693.457 212.712 693.589 212.539C696.878 208.332 699.275 203.5 700.634 198.336C701.992 193.172 702.284 187.785 701.49 182.505C701.16 180.431 701.492 178.887 702.923 178.396C709.105 176.272 726.427 180.73 731.669 184.758C736.912 188.786 741.11 194.117 746.159 198.406C751.209 202.694 757.644 206.002 764.056 204.834C769.191 203.899 773.559 200.171 776.497 195.674C779.435 191.177 781.126 185.936 782.641 180.727C771.286 187.287 755.746 184.541 747.088 174.445Z" fill="#2F2E41"/>
<path d="M82.8255 107.73C82.8255 110.16 82.9055 112.59 83.0755 115C83.2555 117.88 83.5655 120.74 83.9855 123.58C85.397 133.142 88.0948 142.47 92.0055 151.31C92.2055 151.75 92.4055 152.19 92.6055 152.63L92.9055 153.29C93.0055 153.51 93.1155 153.73 93.2155 153.94C93.3555 154.23 93.4855 154.51 93.6255 154.79C93.7955 155.14 93.9655 155.49 94.1455 155.84C94.1655 155.88 94.1855 155.93 94.2155 155.98C94.3655 156.28 94.5055 156.57 94.6655 156.87C94.6949 156.935 94.7283 156.999 94.7655 157.06C94.9355 157.4 95.1155 157.75 95.2955 158.09C95.4955 158.45 95.6855 158.82 95.8855 159.18C96.3655 160.07 96.8655 160.95 97.3755 161.83C97.5255 162.09 97.6755 162.35 97.8355 162.61C97.9755 162.85 98.1155 163.09 98.2655 163.33C98.3655 163.49 98.4655 163.66 98.5655 163.82C98.7255 164.09 98.8855 164.35 99.0555 164.62C99.4255 165.21 99.8055 165.8 100.176 166.39H100.186C100.356 166.66 100.536 166.93 100.716 167.19V167.2C101.246 168 101.796 168.8 102.346 169.59C102.347 169.59 102.348 169.59 102.349 169.591C102.351 169.591 102.352 169.592 102.353 169.593C102.354 169.594 102.354 169.595 102.355 169.596C102.355 169.597 102.356 169.599 102.356 169.6C102.796 170.24 103.256 170.86 103.706 171.48V171.49C104.006 171.88 104.296 172.28 104.596 172.67C104.836 172.99 105.086 173.32 105.336 173.64C105.386 173.71 105.446 173.77 105.496 173.84V173.85C105.566 173.94 105.636 174.02 105.706 174.11C106.766 175.47 107.859 176.8 108.986 178.1L109.166 178.31C109.226 178.38 109.296 178.45 109.356 178.53C109.456 178.64 109.546 178.75 109.646 178.86C109.736 178.97 109.836 179.08 109.936 179.19C115.809 185.806 122.468 191.679 129.766 196.68C130.736 197.35 131.726 198 132.716 198.63C132.966 198.79 133.216 198.95 133.466 199.1C133.536 199.15 133.616 199.2 133.686 199.25C133.826 199.33 133.956 199.41 134.096 199.5C134.226 199.58 134.356 199.66 134.496 199.74C135.026 200.07 135.566 200.39 136.106 200.71C136.236 200.79 136.376 200.87 136.516 200.95C136.646 201.02 136.786 201.1 136.926 201.18C136.926 201.19 136.926 201.19 136.936 201.19H136.946V201.2H136.956C137.626 201.59 138.306 201.97 138.996 202.34C139.366 202.54 139.746 202.75 140.126 202.94C140.986 203.41 141.856 203.86 142.726 204.29C143.036 204.44 143.356 204.59 143.666 204.75C143.926 204.87 144.186 205 144.446 205.12C144.526 205.16 144.596 205.19 144.666 205.23C144.886 205.33 145.096 205.43 145.316 205.53C145.556 205.64 145.796 205.75 146.026 205.86C146.296 205.98 146.556 206.1 146.826 206.21C147.826 206.66 148.836 207.09 149.846 207.5C153.465 208.984 157.164 210.266 160.926 211.34C161.096 211.39 161.276 211.44 161.456 211.49C163.066 211.94 164.686 212.35 166.316 212.72C169.166 213.38 172.042 213.92 174.946 214.34H174.966C175.316 214.39 175.656 214.44 176.006 214.49C176.036 214.49 176.066 214.5 176.106 214.5C176.106 214.51 176.106 214.51 176.116 214.5C176.496 214.55 176.886 214.6 177.266 214.65C177.292 214.658 177.319 214.661 177.346 214.66C177.706 214.71 178.076 214.75 178.436 214.79C178.826 214.83 179.216 214.87 179.606 214.91C179.906 214.94 180.206 214.97 180.506 215C180.531 215.009 180.559 215.012 180.586 215.01C180.856 215.03 181.126 215.06 181.396 215.08H181.436C181.666 215.1 181.906 215.12 182.136 215.14C184.926 215.36 187.726 215.46 190.566 215.46C193.636 215.46 196.686 215.34 199.696 215.08H199.726C200.376 215.02 201.016 214.96 201.656 214.9C201.826 214.88 201.986 214.87 202.156 214.85C202.186 214.85 202.226 214.84 202.256 214.84C202.306 214.83 202.356 214.83 202.416 214.82C202.443 214.821 202.47 214.818 202.496 214.81C202.716 214.79 202.936 214.76 203.166 214.74L203.916 214.65C204.166 214.62 204.416 214.58 204.666 214.55C204.726 214.54 204.776 214.54 204.836 214.53C205.016 214.51 205.196 214.48 205.376 214.45C205.466 214.44 205.556 214.43 205.636 214.42C205.816 214.39 205.986 214.37 206.166 214.34H206.176C211.663 213.55 217.08 212.329 222.376 210.69C222.656 210.6 222.936 210.52 223.216 210.43C223.226 210.43 223.236 210.42 223.246 210.42C223.326 210.39 223.416 210.37 223.496 210.34C224.246 210.1 224.986 209.85 225.726 209.59C226.746 209.25 227.756 208.88 228.766 208.5C229.036 208.39 229.306 208.29 229.576 208.18C230.126 207.97 230.666 207.75 231.206 207.53C232.126 207.16 233.046 206.77 233.956 206.37C234.806 205.99 235.646 205.61 236.486 205.21C236.506 205.2 236.536 205.2 236.556 205.18C236.746 205.09 236.936 205 237.116 204.91H237.126C241.731 202.7 246.172 200.163 250.416 197.32C251.776 196.41 253.116 195.47 254.436 194.5C255.496 193.71 256.536 192.91 257.576 192.09C262.706 188.009 267.456 183.47 271.766 178.53V178.52C272.076 178.18 272.366 177.83 272.666 177.48C272.716 177.43 272.756 177.38 272.796 177.34C272.986 177.11 273.166 176.89 273.356 176.67V176.66C273.606 176.37 273.856 176.07 274.096 175.77C274.156 175.7 274.206 175.64 274.256 175.58V175.57C274.456 175.33 274.646 175.09 274.846 174.84C274.946 174.72 275.036 174.6 275.136 174.48V174.47C275.726 173.73 276.296 172.99 276.866 172.23C277.016 172.03 277.166 171.82 277.326 171.61C278.046 170.64 278.746 169.65 279.426 168.66V168.65C279.686 168.28 279.936 167.9 280.196 167.53C280.446 167.15 280.696 166.77 280.946 166.39C281.196 165.99 281.456 165.6 281.706 165.2L281.736 165.14C281.986 164.76 282.236 164.36 282.476 163.97C282.666 163.65 282.856 163.34 283.046 163.03C283.166 162.82 283.296 162.61 283.416 162.39C283.462 162.322 283.506 162.252 283.546 162.18C283.826 161.69 284.106 161.2 284.386 160.71C284.716 160.14 285.036 159.56 285.356 158.98C285.476 158.74 285.606 158.5 285.736 158.26C285.786 158.18 285.826 158.1 285.866 158.02C286.016 157.74 286.166 157.45 286.306 157.16C286.456 156.88 286.606 156.59 286.756 156.3C286.896 156.02 287.046 155.73 287.186 155.44C287.296 155.22 287.396 155 287.506 154.78C287.513 154.762 287.523 154.745 287.536 154.73C287.586 154.62 287.636 154.52 287.676 154.42C287.688 154.405 287.698 154.388 287.706 154.37C287.816 154.15 287.916 153.92 288.026 153.7C288.166 153.41 288.296 153.11 288.436 152.82C288.526 152.62 288.626 152.41 288.716 152.2C288.846 151.91 288.986 151.62 289.106 151.32C289.246 151.02 289.376 150.72 289.506 150.41C289.543 150.335 289.576 150.258 289.606 150.18C289.676 150.04 289.726 149.9 289.786 149.76C289.946 149.39 290.106 149.01 290.256 148.64C290.436 148.22 290.606 147.79 290.766 147.37C290.926 146.98 291.076 146.58 291.226 146.18L291.286 146.04C293.616 139.903 295.383 133.567 296.566 127.11V127.1C297.233 123.414 297.71 119.695 297.996 115.96C298.006 115.75 298.026 115.55 298.036 115.35C298.216 112.82 298.296 110.28 298.296 107.73C298.296 106.6 298.276 105.48 298.246 104.36C297.548 80.9363 289.195 58.3863 274.466 40.16C274.146 39.76 273.826 39.3599 273.496 38.9599C273.166 38.5599 272.826 38.1699 272.496 37.7799C261.533 24.9421 247.708 14.8597 232.134 8.34541C216.56 1.83116 199.673 -0.932589 182.835 0.276941C165.997 1.48647 149.679 6.63543 135.196 15.3088C120.713 23.9821 108.47 35.9371 99.4556 50.2099C98.9656 50.9899 98.4756 51.78 98.0056 52.57C97.5256 53.37 97.0656 54.17 96.6056 54.98C87.5462 71.0832 82.7996 89.2533 82.8255 107.73Z" fill="#F2F2F2"/>
<path d="M186.283 37.2634C203.999 41.8092 222.154 44.4295 240.432 45.0787C243.196 45.2293 245.966 45.2104 248.728 45.0223C254.797 44.5119 259.995 42.6044 265.785 41.562C268.568 41.0623 271.669 40.6969 274.471 40.1569C273.823 39.3536 273.164 38.5602 272.493 37.7766C266.451 38.287 260.315 39.9581 254.2 40.7345C243.806 42.0563 232.16 40.5814 224.28 36.9437C220.457 35.1786 217.528 32.9756 213.719 31.2025C213.201 30.9365 212.639 30.7646 212.061 30.6947C210.963 30.6618 209.878 30.9433 208.934 31.5061C202.543 34.7327 193.263 37.3548 184.65 35.9121C184.008 36.4145 185.228 36.9867 186.283 37.2634Z" fill="white"/>
<path d="M148.169 48.6184C148.09 48.6041 148.011 48.5929 147.932 48.5792C148.263 48.3742 148.575 48.1394 148.863 47.8779L148.169 48.6184Z" fill="white"/>
<path d="M96.6077 54.9843C100.205 55.2717 103.821 55.4858 107.456 55.6264C110.22 55.7756 112.991 55.7568 115.752 55.57C121.821 55.0568 127.02 53.152 132.809 52.1096C138.115 51.1559 144.563 50.6965 147.932 48.5795C139.225 47.0723 130.203 50.1404 121.225 51.2822C113.962 52.1752 106.6 51.8117 99.4608 50.2075C98.4668 51.7711 97.5157 53.3634 96.6077 54.9843Z" fill="white"/>
<path d="M140.125 202.94C140.985 203.41 141.855 203.86 142.725 204.29C143.035 204.44 143.355 204.59 143.665 204.75C143.925 204.87 144.185 205 144.445 205.12C144.525 205.16 144.595 205.19 144.665 205.23C144.885 205.33 145.095 205.43 145.315 205.53C145.555 205.64 145.796 205.75 146.026 205.86C146.296 205.98 146.556 206.1 146.826 206.21C147.826 206.66 148.835 207.09 149.845 207.5C153.465 208.984 157.164 210.266 160.926 211.34C161.096 211.39 161.276 211.44 161.456 211.49C163.066 211.94 164.686 212.35 166.316 212.72C169.166 213.38 172.042 213.92 174.946 214.34H174.966C175.316 214.39 175.656 214.44 176.006 214.49C176.036 214.49 176.066 214.5 176.106 214.5C176.106 214.51 176.106 214.51 176.116 214.5C176.496 214.55 176.886 214.6 177.266 214.65C177.291 214.658 177.319 214.661 177.346 214.66C177.706 214.71 178.076 214.75 178.436 214.79C178.826 214.83 179.216 214.87 179.606 214.91C179.906 214.94 180.206 214.97 180.506 215C180.531 215.009 180.558 215.012 180.586 215.01C180.856 215.03 181.126 215.06 181.396 215.08H181.436C181.666 215.1 181.906 215.12 182.136 215.14C184.926 215.36 187.726 215.46 190.566 215.46C193.636 215.46 196.686 215.34 199.696 215.08H199.726C200.376 215.02 201.016 214.96 201.656 214.9C201.826 214.88 201.986 214.87 202.156 214.85C202.186 214.85 202.226 214.84 202.256 214.84C202.306 214.83 202.356 214.83 202.416 214.82C202.443 214.821 202.47 214.818 202.496 214.81C202.716 214.79 202.936 214.76 203.166 214.74L203.916 214.65C204.166 214.62 204.416 214.58 204.666 214.55C204.726 214.54 204.776 214.54 204.836 214.53C205.016 214.51 205.196 214.48 205.376 214.45C205.466 214.44 205.556 214.43 205.636 214.42C205.816 214.39 205.986 214.37 206.166 214.34H206.176C211.663 213.55 217.08 212.33 222.376 210.69C222.656 210.6 222.936 210.52 223.216 210.43C221.924 204.408 219.266 198.764 215.446 193.933C211.626 189.103 206.747 185.215 201.186 182.57C202.561 181.259 203.512 179.566 203.916 177.71C204.175 176.513 204.196 175.277 203.976 174.072C203.756 172.867 203.301 171.718 202.636 170.69C201.338 168.697 199.302 167.302 196.976 166.81L182.156 163.71C179.77 163.245 177.297 163.74 175.275 165.088C173.252 166.437 171.844 168.529 171.356 170.91C171.204 171.64 171.137 172.385 171.156 173.13C156.886 182.63 146.615 192.48 140.125 202.94Z" fill="#DB4545"/>
<path d="M198.754 153.706C218.677 153.706 234.827 137.556 234.827 117.633C234.827 97.7103 218.677 81.5598 198.754 81.5598C178.831 81.5598 162.681 97.7103 162.681 117.633C162.681 137.556 178.831 153.706 198.754 153.706Z" fill="#9E616A"/>
<path d="M193.628 151.778C184.597 154.217 174.641 150.974 167.593 144.823C160.545 138.672 156.137 129.956 153.596 120.953C151.736 114.36 150.854 107.041 153.79 100.85C156.725 94.6603 164.627 90.484 170.723 93.6108C166.962 89.2296 168.841 81.9831 173.233 78.2351C177.625 74.4871 183.656 73.4125 189.4 72.8251C197.735 71.9726 206.346 71.8772 214.278 74.5778C222.211 77.2784 229.418 83.1827 231.9 91.1859C234.436 92.3664 237.291 92.6727 240.02 92.0567C242.748 91.4408 245.195 89.9373 246.977 87.7819C247.437 90.2574 247.067 92.8154 245.927 95.06C244.786 97.3046 242.938 99.1108 240.667 100.199L252.821 96.2587C254.911 100.683 251.249 106.159 246.565 107.576C241.882 108.992 236.826 107.444 232.381 105.397C227.937 103.35 223.63 100.762 218.802 99.9638C213.974 99.1655 208.304 100.717 206.071 105.071C204.901 107.351 204.84 110.022 204.161 112.493C203.482 114.964 201.762 117.527 199.207 117.729C197.593 117.857 196.012 116.997 194.403 117.173C193.415 117.367 192.505 117.846 191.785 118.549C191.065 119.253 190.566 120.151 190.348 121.134C189.948 123.107 189.943 125.139 190.334 127.114L193.421 150.712L193.628 151.778Z" fill="#2F2E41"/>
</svg>
