<svg width="340" height="59" viewBox="0 0 340 59" fill="none" xmlns="http://www.w3.org/2000/svg">
<path d="M236.134 1L227.845 49.2204L221.99 49.2171L213.5 1H208L219.129 58.3812H230.345L241.474 1H236.134Z" fill="#D13239"/>
<path d="M227.871 49.5533L236.453 1.00482H230.921L224.839 38.4939L218.758 1.00482L213.021 1L221.811 49.5507L227.871 49.5533Z" fill="white"/>
<path d="M231.431 1.00036L224.738 37.7828L218.042 1L231.431 1.00036Z" fill="black"/>
<path d="M317.026 17.2451C317.919 15.8527 319.151 14.728 320.722 13.8711C322.293 13.0142 324.131 12.5857 326.238 12.5857C328.702 12.5857 330.933 13.2106 332.933 14.4602C334.932 15.7099 336.503 17.4951 337.645 19.8158C338.824 22.1366 339.413 24.8323 339.413 27.9028C339.413 30.9734 338.824 33.6869 337.645 36.0434C336.503 38.3642 334.932 40.1672 332.933 41.4526C330.933 42.7022 328.702 43.3271 326.238 43.3271C324.167 43.3271 322.328 42.8986 320.722 42.0417C319.151 41.1848 317.919 40.078 317.026 38.7212V57.1446H307.868V13.0142H317.026V17.2451ZM330.094 27.9028C330.094 25.6178 329.451 23.8326 328.166 22.5472C326.916 21.2262 325.363 20.5656 323.507 20.5656C321.686 20.5656 320.133 21.2262 318.847 22.5472C317.598 23.8683 316.973 25.6713 316.973 27.9564C316.973 30.2415 317.598 32.0445 318.847 33.3656C320.133 34.6866 321.686 35.3472 323.507 35.3472C325.328 35.3472 326.881 34.6866 328.166 33.3656C329.451 32.0088 330.094 30.1879 330.094 27.9028Z" fill="black"/>
<path d="M290.161 43.3271C287.555 43.3271 285.234 42.8808 283.199 41.9882C281.164 41.0956 279.557 39.8816 278.379 38.3463C277.201 36.7753 276.54 35.0258 276.397 33.0978H285.449C285.556 34.1332 286.038 34.9723 286.895 35.615C287.751 36.2576 288.805 36.579 290.054 36.579C291.197 36.579 292.072 36.3647 292.679 35.9363C293.321 35.4721 293.643 34.883 293.643 34.1689C293.643 33.312 293.196 32.6872 292.304 32.2945C291.411 31.866 289.965 31.4019 287.966 30.902C285.823 30.4021 284.038 29.8844 282.61 29.3489C281.182 28.7776 279.95 27.9028 278.915 26.7246C277.879 25.5107 277.361 23.8861 277.361 21.851C277.361 20.1372 277.826 18.584 278.754 17.1916C279.718 15.7634 281.11 14.6387 282.931 13.8175C284.788 12.9963 286.984 12.5857 289.519 12.5857C293.268 12.5857 296.213 13.514 298.356 15.3707C300.534 17.2273 301.783 19.6909 302.105 22.7614H293.643C293.5 21.726 293.036 20.9048 292.25 20.2978C291.5 19.6909 290.501 19.3874 289.251 19.3874C288.18 19.3874 287.359 19.6016 286.787 20.0301C286.216 20.4228 285.93 20.9762 285.93 21.6903C285.93 22.5472 286.377 23.1899 287.269 23.6183C288.198 24.0468 289.626 24.4752 291.554 24.9037C293.768 25.475 295.571 26.0462 296.963 26.6175C298.356 27.1531 299.57 28.0457 300.605 29.2953C301.676 30.5093 302.229 32.1516 302.265 34.2225C302.265 35.972 301.765 37.543 300.766 38.9354C299.802 40.2922 298.391 41.3633 296.535 42.1488C294.714 42.9343 292.589 43.3271 290.161 43.3271Z" fill="black"/>
<path d="M273.173 27.4744C273.173 28.3313 273.119 29.2239 273.012 30.1522H252.286C252.429 32.0088 253.018 33.437 254.053 34.4367C255.124 35.4007 256.427 35.8827 257.963 35.8827C260.248 35.8827 261.837 34.9187 262.729 32.9907H272.476C271.977 34.9544 271.066 36.7218 269.745 38.2928C268.46 39.8638 266.835 41.0956 264.871 41.9882C262.908 42.8808 260.712 43.3271 258.284 43.3271C255.356 43.3271 252.75 42.7022 250.465 41.4526C248.18 40.2029 246.395 38.4177 245.109 36.097C243.824 33.7762 243.181 31.0627 243.181 27.9564C243.181 24.8501 243.806 22.1366 245.056 19.8158C246.341 17.4951 248.126 15.7099 250.411 14.4602C252.696 13.2106 255.321 12.5857 258.284 12.5857C261.176 12.5857 263.747 13.1927 265.996 14.4067C268.246 15.6206 269.995 17.3522 271.245 19.6016C272.53 21.851 273.173 24.4752 273.173 27.4744ZM263.8 25.0644C263.8 23.4934 263.265 22.2437 262.194 21.3154C261.123 20.3871 259.784 19.923 258.177 19.923C256.642 19.923 255.338 20.3693 254.267 21.2619C253.232 22.1545 252.589 23.422 252.339 25.0644H263.8Z" fill="black"/>
<path d="M199.765 9.90792C198.158 9.90792 196.837 9.44376 195.802 8.51546C194.802 7.55144 194.302 6.3732 194.302 4.98074C194.302 3.55257 194.802 2.37433 195.802 1.44602C196.837 0.482007 198.158 0 199.765 0C201.336 0 202.621 0.482007 203.621 1.44602C204.656 2.37433 205.174 3.55257 205.174 4.98074C205.174 6.3732 204.656 7.55144 203.621 8.51546C202.621 9.44376 201.336 9.90792 199.765 9.90792ZM204.317 13.0142V42.8986H195.159V13.0142H204.317Z" fill="black"/>
<path d="M177.281 12.6929C180.78 12.6929 183.565 13.8354 185.635 16.1205C187.742 18.3698 188.795 21.4761 188.795 25.4393V42.8986H179.691V26.671C179.691 24.6716 179.173 23.1185 178.138 22.0117C177.102 20.9048 175.71 20.3514 173.96 20.3514C172.211 20.3514 170.818 20.9048 169.783 22.0117C168.747 23.1185 168.23 24.6716 168.23 26.671V42.8986H159.072V13.0142H168.23V16.9774C169.158 15.6563 170.408 14.6209 171.979 13.8711C173.55 13.0856 175.317 12.6929 177.281 12.6929Z" fill="black"/>
<path d="M152.493 13.0142V42.8986H143.335V38.8283C142.407 40.1494 141.139 41.2205 139.533 42.0417C137.962 42.8272 136.212 43.22 134.284 43.22C131.999 43.22 129.982 42.7201 128.232 41.7204C126.483 40.685 125.126 39.2032 124.162 37.2752C123.198 35.3472 122.716 33.08 122.716 30.4735V13.0142H131.82V29.2418C131.82 31.2412 132.338 32.7943 133.374 33.9012C134.409 35.008 135.801 35.5614 137.551 35.5614C139.336 35.5614 140.746 35.008 141.782 33.9012C142.817 32.7943 143.335 31.2412 143.335 29.2418V13.0142H152.493Z" fill="black"/>
<path d="M103.903 13.0142C106.188 13.0142 108.223 13.4962 110.009 14.4602C111.794 15.3885 113.204 16.7988 114.24 18.6912C115.275 20.5835 115.793 22.8864 115.793 25.5999V42.8986H110.973V26.2962C110.973 23.3684 110.241 21.1369 108.777 19.6016C107.349 18.0306 105.403 17.2451 102.939 17.2451C100.404 17.2451 98.3869 18.0663 96.8874 19.7087C95.3878 21.3154 94.638 23.654 94.638 26.7246V42.8986H89.8179V26.2962C89.8179 23.3684 89.086 21.1369 87.6221 19.6016C86.1939 18.0306 84.2481 17.2451 81.7845 17.2451C79.2495 17.2451 77.2322 18.0663 75.7326 19.7087C74.233 21.3154 73.4832 23.654 73.4832 26.7246V42.8986H68.6096V13.5498H73.4832V17.7807C74.4473 16.2454 75.7326 15.0672 77.3393 14.246C78.9817 13.4248 80.7848 13.0142 82.7485 13.0142C85.2121 13.0142 87.39 13.5676 89.2824 14.6744C91.1747 15.7813 92.585 17.4058 93.5133 19.5481C94.3345 17.4772 95.6913 15.8705 97.5836 14.728C99.4759 13.5855 101.582 13.0142 103.903 13.0142Z" fill="#D13239"/>
<path d="M47.1521 43.3806C44.4029 43.3806 41.9036 42.7558 39.6542 41.5062C37.4406 40.2565 35.6911 38.4891 34.4057 36.2041C33.1561 33.8833 32.5312 31.2055 32.5312 28.1706C32.5312 25.1715 33.1739 22.5294 34.4593 20.2443C35.7803 17.9235 37.5655 16.1562 39.8149 14.9422C42.0643 13.6926 44.5814 13.0677 47.3664 13.0677C50.1513 13.0677 52.6684 13.6926 54.9178 14.9422C57.1672 16.1562 58.9345 17.9057 60.2199 20.1907C61.5409 22.4758 62.2015 25.1358 62.2015 28.1706C62.2015 31.2055 61.5231 33.8833 60.1663 36.2041C58.8453 38.4891 57.0422 40.2565 54.7571 41.5062C52.4721 42.7558 49.9371 43.3806 47.1521 43.3806ZM47.1521 39.0961C48.9016 39.0961 50.544 38.6855 52.0793 37.8643C53.6146 37.0431 54.8464 35.8113 55.7747 34.1689C56.7387 32.5265 57.2207 30.5271 57.2207 28.1706C57.2207 25.8142 56.7566 23.8147 55.8282 22.1723C54.8999 20.5299 53.686 19.316 52.1864 18.5305C50.6868 17.7093 49.0623 17.2987 47.3128 17.2987C45.5276 17.2987 43.8852 17.7093 42.3856 18.5305C40.9217 19.316 39.7435 20.5299 38.8509 22.1723C37.9583 23.8147 37.512 25.8142 37.512 28.1706C37.512 30.5628 37.9404 32.5801 38.7973 34.2225C39.6899 35.8649 40.8682 37.0967 42.3321 37.9179C43.7959 38.7034 45.4026 39.0961 47.1521 39.0961Z" fill="#D13239"/>
<path d="M0 28.1706C0 25.1358 0.606972 22.4937 1.82092 20.2443C3.03486 17.9592 4.71296 16.1919 6.85521 14.9422C9.03317 13.6926 11.5146 13.0677 14.2995 13.0677C17.9057 13.0677 20.8691 13.9425 23.1899 15.692C25.5464 17.4415 27.0995 19.8694 27.8493 22.9757H22.6008C22.1009 21.1905 21.119 19.7801 19.6552 18.7447C18.227 17.7093 16.4418 17.1916 14.2995 17.1916C11.5146 17.1916 9.26524 18.1556 7.55144 20.0836C5.83764 21.9759 4.98074 24.6716 4.98074 28.1706C4.98074 31.7053 5.83764 34.4367 7.55144 36.3647C9.26524 38.2928 11.5146 39.2568 14.2995 39.2568C16.4418 39.2568 18.227 38.7569 19.6552 37.7572C21.0833 36.7575 22.0652 35.3293 22.6008 33.4727H27.8493C27.0638 36.4719 25.4928 38.8819 23.1363 40.7028C20.7799 42.488 17.8343 43.3806 14.2995 43.3806C11.5146 43.3806 9.03317 42.7558 6.85521 41.5062C4.71296 40.2565 3.03486 38.4891 1.82092 36.2041C0.606972 33.919 0 31.2412 0 28.1706Z" fill="#D13239"/>
</svg>
